<mxfile host="app.diagrams.net" modified="2023-12-02T21:27:53.145Z" agent="Mozilla/5.0 (Windows NT 10.0; Win64; x64) AppleWebKit/537.36 (KHTML, like Gecko) Chrome/119.0.0.0 Safari/537.36" etag="RcoI_Oy78PWQJfgLuYr8" version="22.1.5" type="device">
  <diagram name="Sayfa -1" id="fqAEg1doyGl84UIIcE8Z">
    <mxGraphModel dx="2327" dy="774" grid="1" gridSize="10" guides="1" tooltips="1" connect="1" arrows="1" fold="1" page="1" pageScale="1" pageWidth="827" pageHeight="1169" background="#FFFFFF" math="0" shadow="0">
      <root>
        <mxCell id="0" />
        <mxCell id="1" parent="0" />
        <mxCell id="DaEDVzZb0QOJkM4qE6mB-27" style="edgeStyle=orthogonalEdgeStyle;rounded=0;orthogonalLoop=1;jettySize=auto;html=1;exitX=0.5;exitY=1;exitDx=0;exitDy=0;entryX=0.5;entryY=0;entryDx=0;entryDy=0;" edge="1" parent="1" source="DaEDVzZb0QOJkM4qE6mB-1" target="DaEDVzZb0QOJkM4qE6mB-3">
          <mxGeometry relative="1" as="geometry" />
        </mxCell>
        <mxCell id="DaEDVzZb0QOJkM4qE6mB-1" value="" style="rounded=1;whiteSpace=wrap;html=1;" vertex="1" parent="1">
          <mxGeometry x="240" y="80" width="320" height="80" as="geometry" />
        </mxCell>
        <mxCell id="DaEDVzZb0QOJkM4qE6mB-32" style="edgeStyle=orthogonalEdgeStyle;rounded=0;orthogonalLoop=1;jettySize=auto;html=1;exitX=0.5;exitY=1;exitDx=0;exitDy=0;entryX=0.5;entryY=0;entryDx=0;entryDy=0;" edge="1" parent="1" source="DaEDVzZb0QOJkM4qE6mB-2" target="DaEDVzZb0QOJkM4qE6mB-4">
          <mxGeometry relative="1" as="geometry" />
        </mxCell>
        <mxCell id="DaEDVzZb0QOJkM4qE6mB-2" value="" style="rounded=1;whiteSpace=wrap;html=1;" vertex="1" parent="1">
          <mxGeometry x="240" y="320" width="320" height="80" as="geometry" />
        </mxCell>
        <mxCell id="DaEDVzZb0QOJkM4qE6mB-29" style="edgeStyle=orthogonalEdgeStyle;rounded=0;orthogonalLoop=1;jettySize=auto;html=1;entryX=0.5;entryY=0;entryDx=0;entryDy=0;" edge="1" parent="1" source="DaEDVzZb0QOJkM4qE6mB-3" target="DaEDVzZb0QOJkM4qE6mB-2">
          <mxGeometry relative="1" as="geometry" />
        </mxCell>
        <mxCell id="DaEDVzZb0QOJkM4qE6mB-3" value="" style="rounded=1;whiteSpace=wrap;html=1;" vertex="1" parent="1">
          <mxGeometry x="240" y="200" width="320" height="80" as="geometry" />
        </mxCell>
        <mxCell id="DaEDVzZb0QOJkM4qE6mB-4" value="" style="rounded=1;whiteSpace=wrap;html=1;" vertex="1" parent="1">
          <mxGeometry x="240" y="440" width="320" height="80" as="geometry" />
        </mxCell>
        <mxCell id="DaEDVzZb0QOJkM4qE6mB-5" value="CHANNEL" style="text;html=1;align=center;verticalAlign=middle;resizable=0;points=[];autosize=1;strokeColor=#6c8ebf;fillColor=#dae8fc;" vertex="1" parent="1">
          <mxGeometry x="150" y="105" width="80" height="30" as="geometry" />
        </mxCell>
        <mxCell id="DaEDVzZb0QOJkM4qE6mB-6" value="IPAAS" style="text;html=1;align=center;verticalAlign=middle;resizable=0;points=[];autosize=1;strokeColor=#6c8ebf;fillColor=#dae8fc;" vertex="1" parent="1">
          <mxGeometry x="160" y="225" width="60" height="30" as="geometry" />
        </mxCell>
        <mxCell id="DaEDVzZb0QOJkM4qE6mB-7" value="APAAS" style="text;html=1;align=center;verticalAlign=middle;resizable=0;points=[];autosize=1;strokeColor=#6c8ebf;fillColor=#dae8fc;" vertex="1" parent="1">
          <mxGeometry x="160" y="345" width="60" height="30" as="geometry" />
        </mxCell>
        <mxCell id="DaEDVzZb0QOJkM4qE6mB-8" value="DAAS" style="text;html=1;align=center;verticalAlign=middle;resizable=0;points=[];autosize=1;strokeColor=#6c8ebf;fillColor=#dae8fc;" vertex="1" parent="1">
          <mxGeometry x="160" y="465" width="60" height="30" as="geometry" />
        </mxCell>
        <mxCell id="DaEDVzZb0QOJkM4qE6mB-11" value="Frontend&lt;br&gt;App" style="whiteSpace=wrap;html=1;aspect=fixed;fillColor=#d5e8d4;strokeColor=#82b366;" vertex="1" parent="1">
          <mxGeometry x="340" y="92.5" width="55" height="55" as="geometry" />
        </mxCell>
        <mxCell id="DaEDVzZb0QOJkM4qE6mB-12" value="Frontend&lt;br&gt;APP" style="whiteSpace=wrap;html=1;aspect=fixed;fillColor=#d5e8d4;strokeColor=#82b366;" vertex="1" parent="1">
          <mxGeometry x="490" y="92.5" width="55" height="55" as="geometry" />
        </mxCell>
        <mxCell id="DaEDVzZb0QOJkM4qE6mB-13" value="Frontend&lt;br&gt;App" style="whiteSpace=wrap;html=1;aspect=fixed;fillColor=#d5e8d4;strokeColor=#82b366;" vertex="1" parent="1">
          <mxGeometry x="414" y="92.5" width="55" height="55" as="geometry" />
        </mxCell>
        <mxCell id="DaEDVzZb0QOJkM4qE6mB-15" value="CHANNEL&lt;br&gt;LAYER" style="text;html=1;align=center;verticalAlign=middle;resizable=0;points=[];autosize=1;strokeColor=#6c8ebf;fillColor=#dae8fc;" vertex="1" parent="1">
          <mxGeometry x="240" y="80" width="80" height="40" as="geometry" />
        </mxCell>
        <mxCell id="DaEDVzZb0QOJkM4qE6mB-16" value="INTEGRATION&lt;br&gt;LAYER" style="text;html=1;align=center;verticalAlign=middle;resizable=0;points=[];autosize=1;strokeColor=#6c8ebf;fillColor=#dae8fc;" vertex="1" parent="1">
          <mxGeometry x="240" y="200" width="100" height="40" as="geometry" />
        </mxCell>
        <mxCell id="DaEDVzZb0QOJkM4qE6mB-17" value="BACKEND&lt;br&gt;LAYER" style="text;html=1;align=center;verticalAlign=middle;resizable=0;points=[];autosize=1;strokeColor=#6c8ebf;fillColor=#dae8fc;" vertex="1" parent="1">
          <mxGeometry x="240" y="320" width="80" height="40" as="geometry" />
        </mxCell>
        <mxCell id="DaEDVzZb0QOJkM4qE6mB-18" value="DATA&lt;br&gt;LAYER" style="text;html=1;align=center;verticalAlign=middle;resizable=0;points=[];autosize=1;strokeColor=#6c8ebf;fillColor=#dae8fc;" vertex="1" parent="1">
          <mxGeometry x="240" y="440" width="60" height="40" as="geometry" />
        </mxCell>
        <mxCell id="DaEDVzZb0QOJkM4qE6mB-19" value="API Gateway" style="rounded=0;whiteSpace=wrap;html=1;fillColor=#d5e8d4;strokeColor=#82b366;" vertex="1" parent="1">
          <mxGeometry x="346" y="215" width="191" height="50" as="geometry" />
        </mxCell>
        <mxCell id="DaEDVzZb0QOJkM4qE6mB-20" value="Backend&lt;br&gt;App" style="whiteSpace=wrap;html=1;aspect=fixed;fillColor=#d5e8d4;strokeColor=#82b366;" vertex="1" parent="1">
          <mxGeometry x="340" y="332.5" width="55" height="55" as="geometry" />
        </mxCell>
        <mxCell id="DaEDVzZb0QOJkM4qE6mB-21" value="Backend&lt;br&gt;APP" style="whiteSpace=wrap;html=1;aspect=fixed;fillColor=#d5e8d4;strokeColor=#82b366;" vertex="1" parent="1">
          <mxGeometry x="490" y="332.5" width="55" height="55" as="geometry" />
        </mxCell>
        <mxCell id="DaEDVzZb0QOJkM4qE6mB-22" value="Backend&lt;br&gt;App" style="whiteSpace=wrap;html=1;aspect=fixed;fillColor=#d5e8d4;strokeColor=#82b366;" vertex="1" parent="1">
          <mxGeometry x="414" y="332.5" width="55" height="55" as="geometry" />
        </mxCell>
        <mxCell id="DaEDVzZb0QOJkM4qE6mB-23" value="" style="image;aspect=fixed;perimeter=ellipsePerimeter;html=1;align=center;shadow=0;dashed=0;spacingTop=3;image=img/lib/active_directory/database.svg;" vertex="1" parent="1">
          <mxGeometry x="340" y="461.5" width="50" height="37" as="geometry" />
        </mxCell>
        <mxCell id="DaEDVzZb0QOJkM4qE6mB-24" value="" style="image;aspect=fixed;perimeter=ellipsePerimeter;html=1;align=center;shadow=0;dashed=0;spacingTop=3;image=img/lib/active_directory/database.svg;" vertex="1" parent="1">
          <mxGeometry x="414" y="461.5" width="50" height="37" as="geometry" />
        </mxCell>
        <mxCell id="DaEDVzZb0QOJkM4qE6mB-25" value="" style="image;aspect=fixed;perimeter=ellipsePerimeter;html=1;align=center;shadow=0;dashed=0;spacingTop=3;image=img/lib/active_directory/database.svg;" vertex="1" parent="1">
          <mxGeometry x="490" y="461.5" width="50" height="37" as="geometry" />
        </mxCell>
        <mxCell id="DaEDVzZb0QOJkM4qE6mB-34" value="&lt;h2&gt;Platform Architecture Overview(Draft)&lt;br&gt;&lt;/h2&gt;" style="text;html=1;align=center;verticalAlign=middle;resizable=0;points=[];autosize=1;strokeColor=none;fillColor=none;" vertex="1" parent="1">
          <mxGeometry x="220" width="350" height="60" as="geometry" />
        </mxCell>
        <mxCell id="DaEDVzZb0QOJkM4qE6mB-35" value="&lt;h2&gt;HR Management System&lt;br&gt;&lt;/h2&gt;" style="text;html=1;align=center;verticalAlign=middle;resizable=0;points=[];autosize=1;strokeColor=none;fillColor=none;" vertex="1" parent="1">
          <mxGeometry x="265" y="555" width="230" height="60" as="geometry" />
        </mxCell>
        <mxCell id="DaEDVzZb0QOJkM4qE6mB-38" style="edgeStyle=orthogonalEdgeStyle;rounded=0;orthogonalLoop=1;jettySize=auto;html=1;exitX=0.5;exitY=1;exitDx=0;exitDy=0;entryX=0.5;entryY=0;entryDx=0;entryDy=0;" edge="1" parent="1" source="DaEDVzZb0QOJkM4qE6mB-36" target="DaEDVzZb0QOJkM4qE6mB-37">
          <mxGeometry relative="1" as="geometry" />
        </mxCell>
        <mxCell id="DaEDVzZb0QOJkM4qE6mB-36" value="HR APP" style="rounded=1;whiteSpace=wrap;html=1;fillColor=#d5e8d4;strokeColor=#82b366;" vertex="1" parent="1">
          <mxGeometry x="280" y="640" width="200" height="60" as="geometry" />
        </mxCell>
        <mxCell id="DaEDVzZb0QOJkM4qE6mB-69" style="edgeStyle=orthogonalEdgeStyle;rounded=0;orthogonalLoop=1;jettySize=auto;html=1;exitX=0.5;exitY=1;exitDx=0;exitDy=0;" edge="1" parent="1" source="DaEDVzZb0QOJkM4qE6mB-37">
          <mxGeometry relative="1" as="geometry">
            <mxPoint x="379.57894736842127" y="880.0000000000002" as="targetPoint" />
          </mxGeometry>
        </mxCell>
        <mxCell id="DaEDVzZb0QOJkM4qE6mB-37" value="HR API GW" style="rounded=1;whiteSpace=wrap;html=1;fillColor=#d5e8d4;strokeColor=#82b366;" vertex="1" parent="1">
          <mxGeometry x="120" y="760" width="520" height="60" as="geometry" />
        </mxCell>
        <mxCell id="DaEDVzZb0QOJkM4qE6mB-39" value="REST" style="text;html=1;align=center;verticalAlign=middle;resizable=0;points=[];autosize=1;strokeColor=#b85450;fillColor=#f8cecc;" vertex="1" parent="1">
          <mxGeometry x="380" y="718" width="60" height="30" as="geometry" />
        </mxCell>
        <mxCell id="DaEDVzZb0QOJkM4qE6mB-73" style="edgeStyle=orthogonalEdgeStyle;rounded=0;orthogonalLoop=1;jettySize=auto;html=1;exitX=0.5;exitY=1;exitDx=0;exitDy=0;" edge="1" parent="1" source="DaEDVzZb0QOJkM4qE6mB-40" target="DaEDVzZb0QOJkM4qE6mB-41">
          <mxGeometry relative="1" as="geometry" />
        </mxCell>
        <mxCell id="DaEDVzZb0QOJkM4qE6mB-40" value="HR&lt;br&gt;CHANNEL" style="rounded=1;whiteSpace=wrap;html=1;fillColor=#d5e8d4;strokeColor=#82b366;" vertex="1" parent="1">
          <mxGeometry y="920" width="120" height="60" as="geometry" />
        </mxCell>
        <mxCell id="DaEDVzZb0QOJkM4qE6mB-91" style="edgeStyle=orthogonalEdgeStyle;rounded=0;orthogonalLoop=1;jettySize=auto;html=1;exitX=0.5;exitY=1;exitDx=0;exitDy=0;" edge="1" parent="1" source="DaEDVzZb0QOJkM4qE6mB-41">
          <mxGeometry relative="1" as="geometry">
            <mxPoint x="59.57894736842104" y="1210" as="targetPoint" />
          </mxGeometry>
        </mxCell>
        <mxCell id="DaEDVzZb0QOJkM4qE6mB-41" value="HR&lt;br&gt;BUSINESS" style="rounded=1;whiteSpace=wrap;html=1;fillColor=#d5e8d4;strokeColor=#82b366;" vertex="1" parent="1">
          <mxGeometry y="1080" width="120" height="80" as="geometry" />
        </mxCell>
        <mxCell id="DaEDVzZb0QOJkM4qE6mB-72" style="edgeStyle=orthogonalEdgeStyle;rounded=0;orthogonalLoop=1;jettySize=auto;html=1;exitX=0.5;exitY=1;exitDx=0;exitDy=0;entryX=0.5;entryY=0;entryDx=0;entryDy=0;" edge="1" parent="1" source="DaEDVzZb0QOJkM4qE6mB-42" target="DaEDVzZb0QOJkM4qE6mB-48">
          <mxGeometry relative="1" as="geometry" />
        </mxCell>
        <mxCell id="DaEDVzZb0QOJkM4qE6mB-82" style="edgeStyle=orthogonalEdgeStyle;rounded=0;orthogonalLoop=1;jettySize=auto;html=1;exitX=0;exitY=0.5;exitDx=0;exitDy=0;entryX=1;entryY=0.5;entryDx=0;entryDy=0;" edge="1" parent="1" source="DaEDVzZb0QOJkM4qE6mB-42" target="DaEDVzZb0QOJkM4qE6mB-41">
          <mxGeometry relative="1" as="geometry" />
        </mxCell>
        <mxCell id="DaEDVzZb0QOJkM4qE6mB-84" style="edgeStyle=orthogonalEdgeStyle;rounded=0;orthogonalLoop=1;jettySize=auto;html=1;exitX=1;exitY=0.5;exitDx=0;exitDy=0;entryX=0;entryY=0.5;entryDx=0;entryDy=0;" edge="1" parent="1" source="DaEDVzZb0QOJkM4qE6mB-42" target="DaEDVzZb0QOJkM4qE6mB-49">
          <mxGeometry relative="1" as="geometry" />
        </mxCell>
        <mxCell id="DaEDVzZb0QOJkM4qE6mB-42" value="EMPLOYEE&lt;br style=&quot;border-color: var(--border-color);&quot;&gt;CHANNEL" style="rounded=1;whiteSpace=wrap;html=1;fillColor=#d5e8d4;strokeColor=#82b366;" vertex="1" parent="1">
          <mxGeometry x="240" y="920" width="120" height="60" as="geometry" />
        </mxCell>
        <mxCell id="DaEDVzZb0QOJkM4qE6mB-74" style="edgeStyle=orthogonalEdgeStyle;rounded=0;orthogonalLoop=1;jettySize=auto;html=1;exitX=0.5;exitY=1;exitDx=0;exitDy=0;" edge="1" parent="1" source="DaEDVzZb0QOJkM4qE6mB-43" target="DaEDVzZb0QOJkM4qE6mB-49">
          <mxGeometry relative="1" as="geometry" />
        </mxCell>
        <mxCell id="DaEDVzZb0QOJkM4qE6mB-43" value="SALARY&lt;br style=&quot;border-color: var(--border-color);&quot;&gt;CHANNEL" style="rounded=1;whiteSpace=wrap;html=1;fillColor=#d5e8d4;strokeColor=#82b366;" vertex="1" parent="1">
          <mxGeometry x="480" y="920" width="120" height="60" as="geometry" />
        </mxCell>
        <mxCell id="DaEDVzZb0QOJkM4qE6mB-75" style="edgeStyle=orthogonalEdgeStyle;rounded=0;orthogonalLoop=1;jettySize=auto;html=1;exitX=0.5;exitY=1;exitDx=0;exitDy=0;entryX=0.5;entryY=0;entryDx=0;entryDy=0;" edge="1" parent="1" source="DaEDVzZb0QOJkM4qE6mB-44" target="DaEDVzZb0QOJkM4qE6mB-50">
          <mxGeometry relative="1" as="geometry" />
        </mxCell>
        <mxCell id="DaEDVzZb0QOJkM4qE6mB-44" value="ORGANIZATION&lt;br&gt;CHANNEL" style="rounded=1;whiteSpace=wrap;html=1;fillColor=#d5e8d4;strokeColor=#82b366;" vertex="1" parent="1">
          <mxGeometry x="720" y="920" width="120" height="60" as="geometry" />
        </mxCell>
        <mxCell id="DaEDVzZb0QOJkM4qE6mB-92" style="edgeStyle=orthogonalEdgeStyle;rounded=0;orthogonalLoop=1;jettySize=auto;html=1;exitX=0.5;exitY=1;exitDx=0;exitDy=0;" edge="1" parent="1" source="DaEDVzZb0QOJkM4qE6mB-48">
          <mxGeometry relative="1" as="geometry">
            <mxPoint x="299.57894736842127" y="1210" as="targetPoint" />
          </mxGeometry>
        </mxCell>
        <mxCell id="DaEDVzZb0QOJkM4qE6mB-48" value="EMPLOYEE&lt;br style=&quot;border-color: var(--border-color);&quot;&gt;BUSINESS" style="rounded=1;whiteSpace=wrap;html=1;fillColor=#d5e8d4;strokeColor=#82b366;" vertex="1" parent="1">
          <mxGeometry x="240" y="1080" width="120" height="80" as="geometry" />
        </mxCell>
        <mxCell id="DaEDVzZb0QOJkM4qE6mB-93" style="edgeStyle=orthogonalEdgeStyle;rounded=0;orthogonalLoop=1;jettySize=auto;html=1;exitX=0.5;exitY=1;exitDx=0;exitDy=0;" edge="1" parent="1" source="DaEDVzZb0QOJkM4qE6mB-49">
          <mxGeometry relative="1" as="geometry">
            <mxPoint x="539.5789473684213" y="1210" as="targetPoint" />
          </mxGeometry>
        </mxCell>
        <mxCell id="DaEDVzZb0QOJkM4qE6mB-49" value="SALARY&lt;br&gt;BUSINESS" style="rounded=1;whiteSpace=wrap;html=1;fillColor=#d5e8d4;strokeColor=#82b366;" vertex="1" parent="1">
          <mxGeometry x="480" y="1080" width="120" height="80" as="geometry" />
        </mxCell>
        <mxCell id="DaEDVzZb0QOJkM4qE6mB-86" style="edgeStyle=orthogonalEdgeStyle;rounded=0;orthogonalLoop=1;jettySize=auto;html=1;exitX=0;exitY=0.5;exitDx=0;exitDy=0;entryX=1;entryY=0.5;entryDx=0;entryDy=0;" edge="1" parent="1" source="DaEDVzZb0QOJkM4qE6mB-50" target="DaEDVzZb0QOJkM4qE6mB-49">
          <mxGeometry relative="1" as="geometry" />
        </mxCell>
        <mxCell id="DaEDVzZb0QOJkM4qE6mB-94" style="edgeStyle=orthogonalEdgeStyle;rounded=0;orthogonalLoop=1;jettySize=auto;html=1;exitX=0.5;exitY=1;exitDx=0;exitDy=0;" edge="1" parent="1" source="DaEDVzZb0QOJkM4qE6mB-50">
          <mxGeometry relative="1" as="geometry">
            <mxPoint x="779.5789473684213" y="1210" as="targetPoint" />
          </mxGeometry>
        </mxCell>
        <mxCell id="DaEDVzZb0QOJkM4qE6mB-50" value="ORGANIZATION&lt;br style=&quot;border-color: var(--border-color);&quot;&gt;BUSINESS" style="rounded=1;whiteSpace=wrap;html=1;fillColor=#d5e8d4;strokeColor=#82b366;" vertex="1" parent="1">
          <mxGeometry x="720" y="1080" width="120" height="80" as="geometry" />
        </mxCell>
        <mxCell id="DaEDVzZb0QOJkM4qE6mB-53" value="" style="endArrow=none;dashed=1;html=1;dashPattern=1 3;strokeWidth=2;rounded=0;" edge="1" parent="1">
          <mxGeometry width="50" height="50" relative="1" as="geometry">
            <mxPoint x="-160" y="840" as="sourcePoint" />
            <mxPoint x="840" y="840" as="targetPoint" />
          </mxGeometry>
        </mxCell>
        <mxCell id="DaEDVzZb0QOJkM4qE6mB-54" value="" style="endArrow=none;dashed=1;html=1;dashPattern=1 3;strokeWidth=2;rounded=0;" edge="1" parent="1">
          <mxGeometry width="50" height="50" relative="1" as="geometry">
            <mxPoint x="-160" y="720" as="sourcePoint" />
            <mxPoint x="840" y="720" as="targetPoint" />
          </mxGeometry>
        </mxCell>
        <mxCell id="DaEDVzZb0QOJkM4qE6mB-56" value="" style="endArrow=none;dashed=1;html=1;dashPattern=1 3;strokeWidth=2;rounded=0;" edge="1" parent="1">
          <mxGeometry width="50" height="50" relative="1" as="geometry">
            <mxPoint x="-160" y="620" as="sourcePoint" />
            <mxPoint x="840" y="620" as="targetPoint" />
          </mxGeometry>
        </mxCell>
        <mxCell id="DaEDVzZb0QOJkM4qE6mB-57" value="" style="endArrow=none;dashed=1;html=1;dashPattern=1 3;strokeWidth=2;rounded=0;" edge="1" parent="1">
          <mxGeometry width="50" height="50" relative="1" as="geometry">
            <mxPoint x="-160" y="1200" as="sourcePoint" />
            <mxPoint x="840" y="1200" as="targetPoint" />
          </mxGeometry>
        </mxCell>
        <mxCell id="DaEDVzZb0QOJkM4qE6mB-58" value="" style="endArrow=none;html=1;rounded=0;" edge="1" parent="1">
          <mxGeometry width="50" height="50" relative="1" as="geometry">
            <mxPoint x="60" y="880" as="sourcePoint" />
            <mxPoint x="780" y="880" as="targetPoint" />
          </mxGeometry>
        </mxCell>
        <mxCell id="DaEDVzZb0QOJkM4qE6mB-59" value="" style="endArrow=classic;html=1;rounded=0;entryX=0.5;entryY=0;entryDx=0;entryDy=0;" edge="1" parent="1" target="DaEDVzZb0QOJkM4qE6mB-40">
          <mxGeometry width="50" height="50" relative="1" as="geometry">
            <mxPoint x="60" y="880" as="sourcePoint" />
            <mxPoint x="370" y="1020" as="targetPoint" />
          </mxGeometry>
        </mxCell>
        <mxCell id="DaEDVzZb0QOJkM4qE6mB-60" value="" style="endArrow=classic;html=1;rounded=0;entryX=0.5;entryY=0;entryDx=0;entryDy=0;" edge="1" parent="1" target="DaEDVzZb0QOJkM4qE6mB-42">
          <mxGeometry width="50" height="50" relative="1" as="geometry">
            <mxPoint x="300" y="880" as="sourcePoint" />
            <mxPoint x="70" y="930" as="targetPoint" />
          </mxGeometry>
        </mxCell>
        <mxCell id="DaEDVzZb0QOJkM4qE6mB-61" value="" style="endArrow=classic;html=1;rounded=0;entryX=0.5;entryY=0;entryDx=0;entryDy=0;" edge="1" parent="1" target="DaEDVzZb0QOJkM4qE6mB-43">
          <mxGeometry width="50" height="50" relative="1" as="geometry">
            <mxPoint x="540" y="880" as="sourcePoint" />
            <mxPoint x="80" y="940" as="targetPoint" />
          </mxGeometry>
        </mxCell>
        <mxCell id="DaEDVzZb0QOJkM4qE6mB-63" value="CHANNEL" style="text;html=1;align=center;verticalAlign=middle;resizable=0;points=[];autosize=1;strokeColor=#6c8ebf;fillColor=#dae8fc;" vertex="1" parent="1">
          <mxGeometry x="-140" y="655" width="80" height="30" as="geometry" />
        </mxCell>
        <mxCell id="DaEDVzZb0QOJkM4qE6mB-64" value="IPAAS" style="text;html=1;align=center;verticalAlign=middle;resizable=0;points=[];autosize=1;strokeColor=#6c8ebf;fillColor=#dae8fc;" vertex="1" parent="1">
          <mxGeometry x="-140" y="775" width="60" height="30" as="geometry" />
        </mxCell>
        <mxCell id="DaEDVzZb0QOJkM4qE6mB-65" value="APAAS" style="text;html=1;align=center;verticalAlign=middle;resizable=0;points=[];autosize=1;strokeColor=#6c8ebf;fillColor=#dae8fc;" vertex="1" parent="1">
          <mxGeometry x="-140" y="1010" width="60" height="30" as="geometry" />
        </mxCell>
        <mxCell id="DaEDVzZb0QOJkM4qE6mB-66" value="DAAS" style="text;html=1;align=center;verticalAlign=middle;resizable=0;points=[];autosize=1;strokeColor=#6c8ebf;fillColor=#dae8fc;" vertex="1" parent="1">
          <mxGeometry x="-140" y="1250" width="60" height="30" as="geometry" />
        </mxCell>
        <mxCell id="DaEDVzZb0QOJkM4qE6mB-67" value="" style="endArrow=none;dashed=1;html=1;dashPattern=1 3;strokeWidth=2;rounded=0;" edge="1" parent="1">
          <mxGeometry width="50" height="50" relative="1" as="geometry">
            <mxPoint x="-160" y="1360" as="sourcePoint" />
            <mxPoint x="840" y="1360" as="targetPoint" />
          </mxGeometry>
        </mxCell>
        <mxCell id="DaEDVzZb0QOJkM4qE6mB-68" value="" style="endArrow=classic;html=1;rounded=0;entryX=0.5;entryY=0;entryDx=0;entryDy=0;" edge="1" parent="1" target="DaEDVzZb0QOJkM4qE6mB-44">
          <mxGeometry width="50" height="50" relative="1" as="geometry">
            <mxPoint x="780" y="880" as="sourcePoint" />
            <mxPoint x="550" y="930" as="targetPoint" />
          </mxGeometry>
        </mxCell>
        <mxCell id="DaEDVzZb0QOJkM4qE6mB-70" value="REST" style="text;html=1;align=center;verticalAlign=middle;resizable=0;points=[];autosize=1;strokeColor=#b85450;fillColor=#f8cecc;" vertex="1" parent="1">
          <mxGeometry x="380" y="840" width="60" height="30" as="geometry" />
        </mxCell>
        <mxCell id="DaEDVzZb0QOJkM4qE6mB-76" value="GRPC" style="text;html=1;align=center;verticalAlign=middle;resizable=0;points=[];autosize=1;strokeColor=#9673a6;fillColor=#e1d5e7;" vertex="1" parent="1">
          <mxGeometry x="60" y="1018" width="60" height="30" as="geometry" />
        </mxCell>
        <mxCell id="DaEDVzZb0QOJkM4qE6mB-77" value="GRPC" style="text;html=1;align=center;verticalAlign=middle;resizable=0;points=[];autosize=1;strokeColor=#9673a6;fillColor=#e1d5e7;" vertex="1" parent="1">
          <mxGeometry x="780" y="1018" width="60" height="30" as="geometry" />
        </mxCell>
        <mxCell id="DaEDVzZb0QOJkM4qE6mB-78" value="GRPC" style="text;html=1;align=center;verticalAlign=middle;resizable=0;points=[];autosize=1;strokeColor=#9673a6;fillColor=#e1d5e7;" vertex="1" parent="1">
          <mxGeometry x="540" y="1018" width="60" height="30" as="geometry" />
        </mxCell>
        <mxCell id="DaEDVzZb0QOJkM4qE6mB-79" value="GRPC" style="text;html=1;align=center;verticalAlign=middle;resizable=0;points=[];autosize=1;strokeColor=#9673a6;fillColor=#e1d5e7;" vertex="1" parent="1">
          <mxGeometry x="300" y="1018" width="60" height="30" as="geometry" />
        </mxCell>
        <mxCell id="DaEDVzZb0QOJkM4qE6mB-80" value="" style="image;aspect=fixed;perimeter=ellipsePerimeter;html=1;align=center;shadow=0;dashed=0;spacingTop=3;image=img/lib/active_directory/databases.svg;" vertex="1" parent="1">
          <mxGeometry x="343.88" y="1230" width="112.24" height="110" as="geometry" />
        </mxCell>
        <mxCell id="DaEDVzZb0QOJkM4qE6mB-81" value="ORACLE" style="text;html=1;align=center;verticalAlign=middle;resizable=0;points=[];autosize=1;strokeColor=#82b366;fillColor=#d5e8d4;" vertex="1" parent="1">
          <mxGeometry x="460" y="1268" width="70" height="30" as="geometry" />
        </mxCell>
        <mxCell id="DaEDVzZb0QOJkM4qE6mB-83" value="GRPC" style="text;html=1;align=center;verticalAlign=middle;resizable=0;points=[];autosize=1;strokeColor=#9673a6;fillColor=#e1d5e7;" vertex="1" parent="1">
          <mxGeometry x="180" y="1018" width="60" height="30" as="geometry" />
        </mxCell>
        <mxCell id="DaEDVzZb0QOJkM4qE6mB-85" value="GRPC" style="text;html=1;align=center;verticalAlign=middle;resizable=0;points=[];autosize=1;strokeColor=#9673a6;fillColor=#e1d5e7;" vertex="1" parent="1">
          <mxGeometry x="420" y="1018" width="60" height="30" as="geometry" />
        </mxCell>
        <mxCell id="DaEDVzZb0QOJkM4qE6mB-87" value="GRPC" style="text;html=1;align=center;verticalAlign=middle;resizable=0;points=[];autosize=1;strokeColor=#9673a6;fillColor=#e1d5e7;" vertex="1" parent="1">
          <mxGeometry x="630" y="1090" width="60" height="30" as="geometry" />
        </mxCell>
        <mxCell id="DaEDVzZb0QOJkM4qE6mB-88" value="İstisna Durum" style="text;html=1;align=center;verticalAlign=middle;resizable=0;points=[];autosize=1;strokeColor=#6F0000;fillColor=#a20025;fontColor=#ffffff;" vertex="1" parent="1">
          <mxGeometry x="610" y="1130" width="100" height="30" as="geometry" />
        </mxCell>
        <mxCell id="DaEDVzZb0QOJkM4qE6mB-89" value="" style="endArrow=none;html=1;rounded=0;" edge="1" parent="1">
          <mxGeometry width="50" height="50" relative="1" as="geometry">
            <mxPoint x="60" y="1210" as="sourcePoint" />
            <mxPoint x="780" y="1210" as="targetPoint" />
          </mxGeometry>
        </mxCell>
        <mxCell id="DaEDVzZb0QOJkM4qE6mB-96" value="" style="endArrow=classic;html=1;rounded=0;entryX=0.5;entryY=0;entryDx=0;entryDy=0;" edge="1" parent="1" target="DaEDVzZb0QOJkM4qE6mB-80">
          <mxGeometry width="50" height="50" relative="1" as="geometry">
            <mxPoint x="400" y="1210" as="sourcePoint" />
            <mxPoint x="370" y="1020" as="targetPoint" />
          </mxGeometry>
        </mxCell>
      </root>
    </mxGraphModel>
  </diagram>
</mxfile>
